<?xml version="1.0" encoding="UTF-8" standalone="no"?>
<!-- Created with Inkscape (http://www.inkscape.org/) -->

<svg
   xmlns:dc="http://purl.org/dc/elements/1.1/"
   xmlns:cc="http://creativecommons.org/ns#"
   xmlns:rdf="http://www.w3.org/1999/02/22-rdf-syntax-ns#"
   xmlns:svg="http://www.w3.org/2000/svg"
   xmlns="http://www.w3.org/2000/svg"
   version="1.1"
   width="317.85715"
   height="298.57144"
   id="svg2">
  <defs
     id="defs4" />
  <metadata
     id="metadata7">
    <rdf:RDF>
      <cc:Work
         rdf:about="">
        <dc:format>image/svg+xml</dc:format>
        <dc:type
           rdf:resource="http://purl.org/dc/dcmitype/StillImage" />
        <dc:title></dc:title>
      </cc:Work>
    </rdf:RDF>
  </metadata>
  <g
     transform="translate(-8.0535717,-249.20535)"
     id="layer1">
    <path
       d="m 205.85308,259.66324 43.4054,0 c 3.52515,0 6.36309,2.83794 6.36309,6.36309 l 0,78.09663 c 0,3.52515 -2.83794,6.36309 -6.36309,6.36309 l -43.4054,0 c -3.52515,0 -6.36309,-2.83794 -6.36309,-6.36309 l 0,-78.09663 c 0,-3.52515 2.83794,-6.36309 6.36309,-6.36309 z"
       id="rect3838"
       style="color:#000000;fill:#f2e9db;fill-opacity:1;fill-rule:nonzero;stroke:#303030;stroke-width:1.46653068;stroke-linecap:round;stroke-linejoin:round;stroke-miterlimit:4;stroke-opacity:1;stroke-dashoffset:0;marker:none;visibility:visible;display:inline;overflow:visible;enable-background:accumulate" />
    <path
       d="m 205.85308,353.66324 43.4054,0 c 3.52515,0 6.36309,2.83794 6.36309,6.36309 l 0,78.09663 c 0,3.52515 -2.83794,6.36309 -6.36309,6.36309 l -43.4054,0 c -3.52515,0 -6.36309,-2.83794 -6.36309,-6.36309 l 0,-78.09663 c 0,-3.52515 2.83794,-6.36309 6.36309,-6.36309 z"
       id="rect3840"
       style="color:#000000;fill:#f2e9db;fill-opacity:1;fill-rule:nonzero;stroke:#303030;stroke-width:1.46653068;stroke-linecap:round;stroke-linejoin:round;stroke-miterlimit:4;stroke-opacity:1;stroke-dashoffset:0;marker:none;visibility:visible;display:inline;overflow:visible;enable-background:accumulate" />
    <path
       d="m 85.853092,447.66324 43.405398,0 c 3.52515,0 6.36309,2.83794 6.36309,6.36309 l 0,78.09663 c 0,3.52515 -2.83794,6.36309 -6.36309,6.36309 l -43.405398,0 c -3.525154,0 -6.363094,-2.83794 -6.363094,-6.36309 l 0,-78.09663 c 0,-3.52515 2.83794,-6.36309 6.363094,-6.36309 z"
       id="rect3846"
       style="color:#000000;fill:#f2e9db;fill-opacity:1;fill-rule:nonzero;stroke:#303030;stroke-width:1.46653068;stroke-linecap:round;stroke-linejoin:round;stroke-miterlimit:4;stroke-opacity:1;stroke-dashoffset:0;marker:none;visibility:visible;display:inline;overflow:visible;enable-background:accumulate" />
    <path
       d="m 265.85308,353.66324 43.4054,0 c 3.52515,0 6.36309,2.83794 6.36309,6.36309 l 0,78.09663 c 0,3.52515 -2.83794,6.36309 -6.36309,6.36309 l -43.4054,0 c -3.52515,0 -6.36309,-2.83794 -6.36309,-6.36309 l 0,-78.09663 c 0,-3.52515 2.83794,-6.36309 6.36309,-6.36309 z"
       id="rect3852"
       style="color:#000000;fill:#f2e9db;fill-opacity:1;fill-rule:nonzero;stroke:#303030;stroke-width:1.46653068;stroke-linecap:round;stroke-linejoin:round;stroke-miterlimit:4;stroke-opacity:1;stroke-dashoffset:0;marker:none;visibility:visible;display:inline;overflow:visible;enable-background:accumulate" />
    <path
       d="m 265.85308,447.66324 43.4054,0 c 3.52515,0 6.36309,2.83794 6.36309,6.36309 l 0,78.09663 c 0,3.52515 -2.83794,6.36309 -6.36309,6.36309 l -43.4054,0 c -3.52515,0 -6.36309,-2.83794 -6.36309,-6.36309 l 0,-78.09663 c 0,-3.52515 2.83794,-6.36309 6.36309,-6.36309 z"
       id="rect3854"
       style="color:#000000;fill:#f2e9db;fill-opacity:1;fill-rule:nonzero;stroke:#303030;stroke-width:1.46653068;stroke-linecap:round;stroke-linejoin:round;stroke-miterlimit:4;stroke-opacity:1;stroke-dashoffset:0;marker:none;visibility:visible;display:inline;overflow:visible;enable-background:accumulate" />
    <path
       d="m 205.85308,447.66324 43.4054,0 c 3.52515,0 6.36309,2.83794 6.36309,6.36309 l 0,78.09663 c 0,3.52515 -2.83794,6.36309 -6.36309,6.36309 l -43.4054,0 c -3.52515,0 -6.36309,-2.83794 -6.36309,-6.36309 l 0,-78.09663 c 0,-3.52515 2.83794,-6.36309 6.36309,-6.36309 z"
       id="rect3856"
       style="color:#000000;fill:#f2e9db;fill-opacity:1;fill-rule:nonzero;stroke:#303030;stroke-width:1.46653068;stroke-linecap:round;stroke-linejoin:round;stroke-miterlimit:4;stroke-opacity:1;stroke-dashoffset:0;marker:none;visibility:visible;display:inline;overflow:visible;enable-background:accumulate" />
    <path
       d="m 145.85308,447.66324 43.4054,0 c 3.52515,0 6.36309,2.83794 6.36309,6.36309 l 0,78.09663 c 0,3.52515 -2.83794,6.36309 -6.36309,6.36309 l -43.4054,0 c -3.52515,0 -6.36309,-2.83794 -6.36309,-6.36309 l 0,-78.09663 c 0,-3.52515 2.83794,-6.36309 6.36309,-6.36309 z"
       id="rect3858"
       style="color:#000000;fill:#f2e9db;fill-opacity:1;fill-rule:nonzero;stroke:#303030;stroke-width:1.46653068;stroke-linecap:round;stroke-linejoin:round;stroke-miterlimit:4;stroke-opacity:1;stroke-dashoffset:0;marker:none;visibility:visible;display:inline;overflow:visible;enable-background:accumulate" />
    <g
       id="g3940">
      <path
         d="m 85.853092,259.66324 43.405398,0 c 3.52515,0 6.36309,2.83794 6.36309,6.36309 l 0,78.09663 c 0,3.52515 -2.83794,6.36309 -6.36309,6.36309 l -43.405398,0 c -3.525154,0 -6.363094,-2.83794 -6.363094,-6.36309 l 0,-78.09663 c 0,-3.52515 2.83794,-6.36309 6.363094,-6.36309 z"
         id="rect3829"
         style="color:#000000;fill:#ffffff;fill-opacity:1;fill-rule:nonzero;stroke:#303030;stroke-width:1.46653068;stroke-linecap:round;stroke-linejoin:round;stroke-miterlimit:4;stroke-opacity:1;stroke-dashoffset:0;marker:none;visibility:visible;display:inline;overflow:visible;enable-background:accumulate" />
      <g
         id="text3896"
         style="font-size:42.55177689px;font-style:normal;font-weight:normal;line-height:125%;letter-spacing:0px;word-spacing:0px;fill:#000000;fill-opacity:1;stroke:none;font-family:Sans">
        <path
           d="m 116.76509,303.34821 -18.948843,0 0,-3.24125 7.272033,-7.91613 c 1.03885,-1.12196 1.9669,-2.14697 2.78415,-3.07503 0.81722,-0.92803 1.5098,-1.83531 2.07772,-2.72182 0.58175,-0.88648 1.025,-1.77297 1.32975,-2.65948 0.30471,-0.90033 0.45708,-1.87686 0.45709,-2.92959 -1e-5,-0.81722 -0.11775,-1.5375 -0.35321,-2.16084 -0.23549,-0.62329 -0.57485,-1.14964 -1.01808,-1.57907 -0.42941,-0.44322 -0.94192,-0.77565 -1.53752,-0.9973 -0.59562,-0.2216 -1.2605,-0.33241 -1.99461,-0.33244 -1.3159,3e-5 -2.50713,0.27013 -3.57369,0.81031 -1.05272,0.52639 -2.05695,1.20511 -3.0127,2.03617 l -2.119274,-2.47249 c 0.554057,-0.49863 1.14967,-0.96265 1.786842,-1.39207 0.637162,-0.44322 1.322812,-0.82414 2.056942,-1.14275 0.73413,-0.31856 1.50981,-0.56788 2.32705,-0.74798 0.81723,-0.19389 1.67602,-0.29085 2.57638,-0.29088 1.32973,3e-5 2.52789,0.18702 3.59446,0.56098 1.0804,0.37402 1.9946,0.91423 2.7426,1.62063 0.74796,0.6926 1.3228,1.54446 1.72451,2.5556 0.41552,0.99733 0.6233,2.12622 0.62332,3.38669 -2e-5,1.17739 -0.18702,2.29936 -0.56099,3.36591 -0.36016,1.06658 -0.86574,2.11929 -1.51674,3.15814 -0.63718,1.02502 -1.40594,2.05696 -2.30627,3.0958 -0.88651,1.03888 -1.84919,2.11929 -2.88804,3.24125 l -5.8384,6.2124 0,0.16621 14.31552,0 0,3.44903"
           id="path4081"
           style="text-align:center;text-anchor:middle" />
      </g>
      <g
         id="text3921"
         style="font-size:42.55177689px;font-style:normal;font-weight:normal;line-height:125%;letter-spacing:0px;word-spacing:0px;fill:#000000;fill-opacity:1;stroke:none;font-family:Sans">
        <path
           d="m 107.56077,313.77143 c 0.33242,1.32977 0.83108,2.5764 1.49596,3.7399 0.67871,1.16355 2.05001,2.71491 4.11389,4.6541 1.95305,1.75916 3.17197,3.09582 3.6568,4.01001 0.48478,0.90036 0.74103,1.84226 0.76875,2.8257 -2e-5,1.34361 -0.45019,2.45865 -1.35052,3.34514 -0.88651,0.87265 -1.93922,1.30897 -3.15814,1.30896 -2.16084,1e-5 -3.93383,-1.32281 -5.31897,-3.96845 0.0554,2.21625 0.36013,3.8992 0.9142,5.04887 0.55405,1.14968 1.39206,2.05002 2.51405,2.70104 1.12195,0.65102 2.60406,1.03194 4.44632,1.14275 l 0.12467,0.76876 -16.414017,0 0.124663,-0.76876 c 1.703724,0 3.151204,-0.33244 4.342444,-0.99731 1.19122,-0.66487 2.09156,-1.59292 2.70104,-2.78415 0.60945,-1.19122 0.91419,-2.79799 0.9142,-4.82032 l 0,-0.29088 c -1.24665,2.64564 -3.04734,3.96846 -5.40208,3.96845 -1.26049,1e-5 -2.340909,-0.43631 -3.241253,-1.30896 -0.886497,-0.88649 -1.329744,-1.97383 -1.329743,-3.26203 -10e-7,-1.24662 0.304732,-2.33396 0.914199,-3.26202 0.609463,-0.94189 1.613695,-1.98075 3.012697,-3.11659 1.89765,-1.64831 3.30357,-3.11656 4.21778,-4.40477 0.92804,-1.28817 1.57906,-2.79798 1.95306,-4.52944"
           id="path4084"
           style="text-align:center;text-anchor:middle" />
      </g>
    </g>
    <g
       transform="translate(60,94)"
       id="g3965">
      <path
         d="m 85.853092,259.66324 43.405398,0 c 3.52515,0 6.36309,2.83794 6.36309,6.36309 l 0,78.09663 c 0,3.52515 -2.83794,6.36309 -6.36309,6.36309 l -43.405398,0 c -3.525154,0 -6.363094,-2.83794 -6.363094,-6.36309 l 0,-78.09663 c 0,-3.52515 2.83794,-6.36309 6.363094,-6.36309 z"
         id="rect3967"
         style="color:#000000;fill:#ffffff;fill-opacity:1;fill-rule:nonzero;stroke:#303030;stroke-width:1.46653068;stroke-linecap:round;stroke-linejoin:round;stroke-miterlimit:4;stroke-opacity:1;stroke-dashoffset:0;marker:none;visibility:visible;display:inline;overflow:visible;enable-background:accumulate" />
      <g
         id="text3969"
         style="font-size:42.55177689px;font-style:normal;font-weight:normal;line-height:125%;letter-spacing:0px;word-spacing:0px;fill:#ff0000;fill-opacity:1;stroke:none;font-family:Sans">
        <path
           d="m 109.4515,303.34821 -3.84379,0 0,-27.01041 -9.495196,0 0,-3.36591 22.771846,0 0,3.36591 -9.43286,0 0,27.01041"
           id="path4074"
           style="text-align:center;text-anchor:middle;fill:#ff0000" />
      </g>
      <g
         id="text3975"
         style="font-size:42.55177689px;font-style:normal;font-weight:normal;line-height:125%;letter-spacing:0px;word-spacing:0px;fill:#ff0000;fill-opacity:1;stroke:none;font-family:Sans">
        <path
           d="m 107.58155,339.82608 c -0.30475,-1.19123 -0.76877,-2.41708 -1.39208,-3.67757 -0.62332,-1.27433 -2.15391,-3.53905 -4.59177,-6.79415 l -1.890724,-2.5556 c -1.038866,-1.39899 -1.745291,-2.54174 -2.119278,-3.42825 -0.373993,-0.90033 -0.560988,-1.80067 -0.560986,-2.70104 -2e-6,-1.48209 0.4848,-2.69409 1.454407,-3.63601 0.9696,-0.95573 2.146971,-1.43361 3.532131,-1.43363 1.19122,2e-5 2.27856,0.40171 3.26202,1.20508 0.9973,0.78955 1.76606,2.00848 2.30628,3.65679 0.45708,-1.64831 1.17736,-2.87416 2.16083,-3.67757 0.99729,-0.81722 2.10541,-1.22583 3.32436,-1.22586 1.34357,3e-5 2.5071,0.47098 3.49057,1.41285 0.99729,0.92807 1.49594,2.07775 1.49596,3.44902 -2e-5,1.19125 -0.30475,2.44481 -0.91419,3.76068 -0.60949,1.31591 -1.68298,2.92268 -3.22048,4.82032 -1.95307,2.47943 -3.37977,4.46019 -4.28011,5.94229 -0.88651,1.46826 -1.57215,3.09581 -2.05694,4.88265"
           id="path4077"
           style="text-align:center;text-anchor:middle;fill:#ff0000" />
      </g>
    </g>
    <g
       transform="translate(0,94)"
       id="g3981">
      <path
         d="m 85.853092,259.66324 43.405398,0 c 3.52515,0 6.36309,2.83794 6.36309,6.36309 l 0,78.09663 c 0,3.52515 -2.83794,6.36309 -6.36309,6.36309 l -43.405398,0 c -3.525154,0 -6.363094,-2.83794 -6.363094,-6.36309 l 0,-78.09663 c 0,-3.52515 2.83794,-6.36309 6.363094,-6.36309 z"
         id="rect3983"
         style="color:#000000;fill:#ffffff;fill-opacity:1;fill-rule:nonzero;stroke:#303030;stroke-width:1.46653068;stroke-linecap:round;stroke-linejoin:round;stroke-miterlimit:4;stroke-opacity:1;stroke-dashoffset:0;marker:none;visibility:visible;display:inline;overflow:visible;enable-background:accumulate" />
      <g
         id="text3985"
         style="font-size:42.55177689px;font-style:normal;font-weight:normal;line-height:125%;letter-spacing:0px;word-spacing:0px;fill:#000000;fill-opacity:1;stroke:none;font-family:Sans">
        <path
           d="m 98.16946,290.36243 c -2e-6,-1.45439 0.06925,-2.90187 0.207773,-4.34244 0.152363,-1.44053 0.408616,-2.81876 0.768757,-4.13467 0.373987,-1.32972 0.87957,-2.5625 1.51674,-3.69835 0.63716,-1.13579 1.44747,-2.11925 2.43094,-2.95036 0.98344,-0.84492 2.16082,-1.50286 3.53212,-1.97384 1.37129,-0.48477 2.97806,-0.72717 4.82032,-0.7272 0.26317,3e-5 0.55405,0.007 0.87265,0.0208 0.31856,0.0139 0.63715,0.0416 0.95575,0.0831 0.33242,0.0277 0.64408,0.0693 0.93498,0.12467 0.30471,0.0416 0.57481,0.097 0.81031,0.16621 l 0,3.22048 c -0.48482,-0.1662 -1.03196,-0.29086 -1.6414,-0.374 -0.60949,-0.0831 -1.21203,-0.12463 -1.80762,-0.12466 -1.24665,3e-5 -2.34784,0.1524 -3.30358,0.4571 -0.94192,0.29091 -1.75915,0.70645 -2.45172,1.24663 -0.69258,0.54024 -1.27434,1.18433 -1.74528,1.93229 -0.45711,0.748 -0.8311,1.57909 -1.12198,2.49327 -0.29088,0.90036 -0.50558,1.86304 -0.64409,2.88803 -0.13852,1.02503 -0.22856,2.09159 -0.2701,3.1997 l 0.24932,0 c 0.27703,-0.49864 0.60946,-0.96267 0.99731,-1.39208 0.40169,-0.44323 0.86571,-0.81722 1.39207,-1.12197 0.52635,-0.31857 1.11504,-0.56789 1.76607,-0.74798 0.66486,-0.18005 1.40591,-0.27009 2.22316,-0.2701 1.31588,10e-6 2.50711,0.20779 3.57369,0.62331 1.06655,0.40171 1.97382,0.99733 2.72182,1.78684 0.74796,0.78956 1.32279,1.75916 1.72451,2.90882 0.41552,1.13583 0.62329,2.43787 0.62331,3.90612 -2e-5,1.57908 -0.21472,2.99885 -0.64409,4.25933 -0.42942,1.26049 -1.04581,2.33398 -1.84917,3.22047 -0.80341,0.87265 -1.77301,1.54444 -2.90882,2.01539 -1.13583,0.47095 -2.41017,0.70643 -3.82301,0.70643 -1.38516,0 -2.6872,-0.2701 -3.90612,-0.81031 -1.20509,-0.54021 -2.25087,-1.36437 -3.13736,-2.47249 -0.8865,-1.10812 -1.586,-2.50019 -2.098502,-4.17623 -0.512508,-1.67602 -0.76876,-3.65678 -0.768758,-5.94229 m 9.86919,10.2224 c 0.83107,10e-6 1.58598,-0.13851 2.26472,-0.41554 0.69255,-0.29088 1.28817,-0.72027 1.78684,-1.28819 0.49863,-0.58176 0.87955,-1.30896 1.14275,-2.18161 0.27701,-0.88649 0.41552,-1.93227 0.41554,-3.13736 -2e-5,-0.9696 -0.11776,-1.83531 -0.35321,-2.59716 -0.22164,-0.77567 -0.561,-1.43361 -1.01809,-1.97383 -0.45711,-0.5402 -1.03195,-0.95574 -1.72451,-1.24664 -0.67873,-0.29086 -1.47519,-0.4363 -2.38938,-0.43632 -0.92806,2e-5 -1.77993,0.16623 -2.5556,0.49865 -0.76184,0.3186 -1.41286,0.74107 -1.95306,1.26742 -0.54022,0.51251 -0.96269,1.1012 -1.26741,1.76606 -0.29089,0.66488 -0.43633,1.32975 -0.43632,1.99461 -1e-5,0.92806 0.12465,1.85611 0.37399,2.78415 0.26317,0.91421 0.64408,1.73837 1.14275,2.4725 0.51249,0.73413 1.14966,1.33667 1.9115,1.80761 0.76182,0.45711 1.64832,0.68566 2.65949,0.68565"
           id="path4067"
           style="text-align:center;text-anchor:middle" />
      </g>
      <g
         id="text3991"
         style="font-size:42.55177689px;font-style:normal;font-weight:normal;line-height:125%;letter-spacing:0px;word-spacing:0px;fill:#000000;fill-opacity:1;stroke:none;font-family:Sans">
        <path
           d="m 107.56077,313.77143 c 0.33242,1.32977 0.83108,2.5764 1.49596,3.7399 0.67871,1.16355 2.05001,2.71491 4.11389,4.6541 1.95305,1.75916 3.17197,3.09582 3.6568,4.01001 0.48478,0.90036 0.74103,1.84226 0.76875,2.8257 -2e-5,1.34361 -0.45019,2.45865 -1.35052,3.34514 -0.88651,0.87265 -1.93922,1.30897 -3.15814,1.30896 -2.16084,1e-5 -3.93383,-1.32281 -5.31897,-3.96845 0.0554,2.21625 0.36013,3.8992 0.9142,5.04887 0.55405,1.14968 1.39206,2.05002 2.51405,2.70104 1.12195,0.65102 2.60406,1.03194 4.44632,1.14275 l 0.12467,0.76876 -16.414017,0 0.124663,-0.76876 c 1.703724,0 3.151204,-0.33244 4.342444,-0.99731 1.19122,-0.66487 2.09156,-1.59292 2.70104,-2.78415 0.60945,-1.19122 0.91419,-2.79799 0.9142,-4.82032 l 0,-0.29088 c -1.24665,2.64564 -3.04734,3.96846 -5.40208,3.96845 -1.26049,1e-5 -2.340909,-0.43631 -3.241253,-1.30896 -0.886497,-0.88649 -1.329744,-1.97383 -1.329743,-3.26203 -10e-7,-1.24662 0.304732,-2.33396 0.914199,-3.26202 0.609463,-0.94189 1.613695,-1.98075 3.012697,-3.11659 1.89765,-1.64831 3.30357,-3.11656 4.21778,-4.40477 0.92804,-1.28817 1.57906,-2.79798 1.95306,-4.52944"
           id="path4070"
           style="text-align:center;text-anchor:middle" />
      </g>
    </g>
    <g
       transform="translate(-60,94)"
       id="g3997">
      <path
         d="m 85.853092,259.66324 43.405398,0 c 3.52515,0 6.36309,2.83794 6.36309,6.36309 l 0,78.09663 c 0,3.52515 -2.83794,6.36309 -6.36309,6.36309 l -43.405398,0 c -3.525154,0 -6.363094,-2.83794 -6.363094,-6.36309 l 0,-78.09663 c 0,-3.52515 2.83794,-6.36309 6.363094,-6.36309 z"
         id="rect3999"
         style="color:#000000;fill:#ffffff;fill-opacity:1;fill-rule:nonzero;stroke:#303030;stroke-width:1.46653068;stroke-linecap:round;stroke-linejoin:round;stroke-miterlimit:4;stroke-opacity:1;stroke-dashoffset:0;marker:none;visibility:visible;display:inline;overflow:visible;enable-background:accumulate" />
      <g
         id="text4001"
         style="font-size:42.55177689px;font-style:normal;font-weight:normal;line-height:125%;letter-spacing:0px;word-spacing:0px;fill:#018100;fill-opacity:1;stroke:none;font-family:Sans">
        <path
           d="m 107.14523,284.71103 c 1.37128,1e-5 2.64562,0.19394 3.82301,0.58176 1.19121,0.37401 2.22314,0.93499 3.09581,1.68295 0.88647,0.748 1.57905,1.67605 2.07772,2.78415 0.49863,1.10814 0.74796,2.3894 0.74798,3.84379 -2e-5,1.57908 -0.2355,2.99886 -0.70643,4.25934 -0.47097,1.26049 -1.17047,2.32705 -2.0985,3.19969 -0.92806,0.87265 -2.07774,1.54444 -3.44902,2.01539 -1.35746,0.4571 -2.92267,0.68565 -4.69565,0.68565 -0.70644,0 -1.40594,-0.0346 -2.0985,-0.10389 -0.67873,-0.0692 -1.33668,-0.17314 -1.97384,-0.31165 -0.62332,-0.12467 -1.21894,-0.29089 -1.78684,-0.49866 -0.567919,-0.20777 -1.080423,-0.45017 -1.537519,-0.7272 l 0,-3.57369 c 0.457096,0.31859 0.990377,0.60255 1.599849,0.85187 0.62331,0.24933 1.27433,0.4571 1.95306,0.62332 0.67871,0.16622 1.35744,0.29781 2.03617,0.39477 0.69256,0.0831 1.32973,0.12466 1.9115,0.12466 1.09426,0 2.07079,-0.12466 2.92959,-0.37399 0.85878,-0.26318 1.58598,-0.66487 2.18161,-1.20508 0.5956,-0.5402 1.0527,-1.21893 1.3713,-2.03617 0.31857,-0.81723 0.47786,-1.78683 0.47788,-2.90881 -2e-5,-1.98075 -0.60949,-3.49057 -1.8284,-4.52944 -1.21895,-1.0527 -2.99193,-1.57905 -5.31897,-1.57907 -0.374,2e-5 -0.78262,0.0208 -1.22586,0.0623 -0.4294,0.0277 -0.86573,0.0693 -1.30897,0.12467 -0.4294,0.0554 -0.84494,0.11775 -1.24663,0.18699 -0.38785,0.0554 -0.72721,0.11083 -1.01808,0.16622 l -1.869955,-1.1843 1.142745,-14.29474 14.33629,0 0,3.44902 -11.05348,0 -0.81032,8.70566 c 0.44324,-0.0831 1.02501,-0.17312 1.74529,-0.2701 0.73412,-0.0969 1.59984,-0.14543 2.59716,-0.14544"
           id="path4060"
           style="text-align:center;text-anchor:middle;fill:#018100" />
      </g>
      <g
         id="text4007"
         style="font-size:42.55177689px;font-style:normal;font-weight:normal;line-height:125%;letter-spacing:0px;word-spacing:0px;fill:#018100;fill-opacity:1;stroke:none;font-family:Sans">
        <path
           d="m 116.30799,339.34821 -17.494435,0 0.166218,-0.72721 c 1.869947,-0.36014 3.213537,-0.73413 4.030787,-1.12197 0.83108,-0.38784 1.57213,-0.99038 2.22316,-1.80762 0.65101,-0.83108 1.16351,-1.75913 1.53752,-2.78415 0.37397,-1.03885 0.56097,-2.08464 0.56098,-3.13736 l -0.0623,-0.97653 c -0.78955,1.67604 -1.79378,2.92267 -3.0127,3.7399 -1.21894,0.80339 -2.45172,1.20509 -3.69835,1.20508 -1.592924,10e-6 -2.950369,-0.5402 -4.072336,-1.62062 -1.121972,-1.09426 -1.682957,-2.48633 -1.682956,-4.17623 -10e-7,-1.5929 0.512504,-2.92957 1.537516,-4.01 1.025006,-1.09425 2.174679,-1.65524 3.449021,-1.68296 0.844935,2e-5 1.966905,0.35323 3.365915,1.05964 -0.51252,-0.91418 -0.89343,-1.64138 -1.14275,-2.18161 -0.15238,-0.49863 -0.22856,-1.01806 -0.22855,-1.55829 -1e-5,-1.67601 0.56098,-3.03346 1.68296,-4.07234 1.12195,-1.03884 2.46555,-1.55827 4.03078,-1.55829 1.60676,2e-5 2.9642,0.55408 4.07234,1.66218 1.1081,1.10814 1.66216,2.40325 1.66218,3.88534 -2e-5,1.19125 -0.4779,2.46558 -1.43363,3.82301 1.1635,-0.54019 1.85608,-0.838 2.07772,-0.89342 0.30471,-0.1108 0.72718,-0.1662 1.26741,-0.16622 1.45438,2e-5 2.64561,0.54023 3.57369,1.62063 1.02498,1.03887 1.53748,2.36861 1.53751,3.98922 -3e-5,1.62064 -0.54023,2.99886 -1.62062,4.13467 -1.08044,1.13583 -2.42404,1.70374 -4.03079,1.70374 -0.7757,0 -1.57216,-0.17314 -2.38938,-0.51943 -0.81725,-0.34628 -1.55831,-0.79646 -2.22316,-1.35052 -0.65104,-0.56791 -1.39902,-1.57906 -2.24394,-3.03348 0.0554,1.73145 0.24931,3.13044 0.58176,4.197 0.34627,1.06657 0.90033,2.0154 1.66218,2.84648 0.77566,0.83109 1.59983,1.43363 2.47249,1.80762 0.88647,0.37399 2.1054,0.6995 3.65679,0.97653 l 0.187,0.72721"
           id="path4063"
           style="text-align:center;text-anchor:middle;fill:#018100" />
      </g>
    </g>
    <g
       transform="translate(-60,188)"
       id="g4013">
      <path
         d="m 85.853092,259.66324 43.405398,0 c 3.52515,0 6.36309,2.83794 6.36309,6.36309 l 0,78.09663 c 0,3.52515 -2.83794,6.36309 -6.36309,6.36309 l -43.405398,0 c -3.525154,0 -6.363094,-2.83794 -6.363094,-6.36309 l 0,-78.09663 c 0,-3.52515 2.83794,-6.36309 6.363094,-6.36309 z"
         id="rect4015"
         style="color:#000000;fill:#ffffff;fill-opacity:1;fill-rule:nonzero;stroke:#303030;stroke-width:1.46653068;stroke-linecap:round;stroke-linejoin:round;stroke-miterlimit:4;stroke-opacity:1;stroke-dashoffset:0;marker:none;visibility:visible;display:inline;overflow:visible;enable-background:accumulate" />
      <g
         id="text4017"
         style="font-size:42.55177689px;font-style:normal;font-weight:normal;line-height:125%;letter-spacing:0px;word-spacing:0px;fill:#ff0000;fill-opacity:1;stroke:none;font-family:Sans">
        <path
           d="m 120.71276,303.34821 -4.50866,0 -10.78338,-14.50251 -3.09581,2.72181 0,11.7807 -3.823014,0 0,-30.37632 3.823014,0 0,14.98038 2.61793,-2.88803 10.82494,-12.09235 4.4671,0 -12.03002,13.2351 12.5079,17.14122"
           id="path4053"
           style="text-align:center;text-anchor:middle;fill:#ff0000" />
      </g>
      <g
         id="text4023"
         style="font-size:42.55177689px;font-style:normal;font-weight:normal;line-height:125%;letter-spacing:0px;word-spacing:0px;fill:#ff0000;fill-opacity:1;stroke:none;font-family:Sans">
        <path
           d="m 107.58155,339.82608 c -0.30475,-1.19123 -0.76877,-2.41708 -1.39208,-3.67757 -0.62332,-1.27433 -2.15391,-3.53905 -4.59177,-6.79415 l -1.890724,-2.5556 c -1.038866,-1.39899 -1.745291,-2.54174 -2.119278,-3.42825 -0.373993,-0.90033 -0.560988,-1.80067 -0.560986,-2.70104 -2e-6,-1.48209 0.4848,-2.69409 1.454407,-3.63601 0.9696,-0.95573 2.146971,-1.43361 3.532131,-1.43363 1.19122,2e-5 2.27856,0.40171 3.26202,1.20508 0.9973,0.78955 1.76606,2.00848 2.30628,3.65679 0.45708,-1.64831 1.17736,-2.87416 2.16083,-3.67757 0.99729,-0.81722 2.10541,-1.22583 3.32436,-1.22586 1.34357,3e-5 2.5071,0.47098 3.49057,1.41285 0.99729,0.92807 1.49594,2.07775 1.49596,3.44902 -2e-5,1.19125 -0.30475,2.44481 -0.91419,3.76068 -0.60949,1.31591 -1.68298,2.92268 -3.22048,4.82032 -1.95307,2.47943 -3.37977,4.46019 -4.28011,5.94229 -0.88651,1.46826 -1.57215,3.09581 -2.05694,4.88265"
           id="path4056"
           style="text-align:center;text-anchor:middle;fill:#ff0000" />
      </g>
    </g>
    <path
       d="m 145.85308,259.66324 43.4054,0 c 3.52515,0 6.36309,2.83794 6.36309,6.36309 l 0,78.09663 c 0,3.52515 -2.83794,6.36309 -6.36309,6.36309 l -43.4054,0 c -3.52515,0 -6.36309,-2.83794 -6.36309,-6.36309 l 0,-78.09663 c 0,-3.52515 2.83794,-6.36309 6.36309,-6.36309 z"
       id="rect4029"
       style="color:#000000;fill:#f2e9db;fill-opacity:1;fill-rule:nonzero;stroke:#303030;stroke-width:1.46653068;stroke-linecap:round;stroke-linejoin:round;stroke-miterlimit:4;stroke-opacity:1;stroke-dashoffset:0;marker:none;visibility:visible;display:inline;overflow:visible;enable-background:accumulate" />
  </g>
</svg>
