<?xml version="1.0" encoding="UTF-8" standalone="no"?>

<svg
   xmlns:dc="http://purl.org/dc/elements/1.1/"
   xmlns:cc="http://creativecommons.org/ns#"
   xmlns:rdf="http://www.w3.org/1999/02/22-rdf-syntax-ns#"
   xmlns:svg="http://www.w3.org/2000/svg"
   xmlns="http://www.w3.org/2000/svg"
   version="1.1"
   width="430"
   height="136"
   id="svg2">
  <defs
     id="defs4" />
  <metadata
     id="metadata7">
    <rdf:RDF>
      <cc:Work
         rdf:about="">
        <dc:format>image/svg+xml</dc:format>
        <dc:type
           rdf:resource="http://purl.org/dc/dcmitype/StillImage" />
        <dc:title></dc:title>
      </cc:Work>
    </rdf:RDF>
  </metadata>
  <g
     transform="translate(-98.031812,-68.434668)">
    <g
       transform="translate(-78.571428,-7.1428571)"
       style="fill:#303030;">
      <path
         d="m 243.46581,106.66276 0,18.18193 62.17046,0 0,11.73027 -129.03303,0 0,-11.73027 55.13229,0 0,-49.267165 11.73028,0 0,19.94147 46.33459,0 0,11.143765 -46.33459,0 m -11.73028,36.36385 11.73028,0 0,15.24936 c 18.37734,8.21123 34.21319,16.0314 47.50762,23.46056 l -7.62468,11.14376 c -12.90341,-8.21118 -26.19771,-15.64035 -39.88294,-22.28753 l 0,39.88294 -11.73028,0 0,-67.44909" />
      <path
         d="m 455.1973,80.269636 0,11.143763 -110.85111,0 0,48.680651 c -3e-5,26.19764 -4.10562,49.85368 -12.31679,70.96817 l -10.55725,-6.45165 c 7.42916,-20.72348 11.14374,-43.40199 11.14376,-68.03561 l 0,-56.305324 122.58139,0 m -51.61322,37.536884 30.49872,0 0,-22.287525 10.55725,0 0,22.287525 12.9033,0 0,10.55725 -12.9033,0 0,66.27606 c -1.3e-4,5.86514 -0.97765,9.87298 -2.93257,12.02353 -1.95517,2.15054 -5.47425,3.22582 -10.55725,3.22583 -5.08323,-1e-5 -9.77533,-0.39102 -14.07633,-1.17303 l -1.75954,-11.14376 c 4.692,0.78202 9.38411,1.17303 14.07633,1.17303 3.12796,0 4.69199,-2.34606 4.69211,-7.03817 l 0,-63.34349 -30.49872,0 0,-10.55725 m -54.54578,-15.83587 52.78624,0 0,10.55725 -52.78624,0 0,-10.55725 m 2.93257,22.87404 46.9211,0 0,39.88294 -46.9211,0 0,-39.88294 m 10.55725,29.32569 25.22009,0 0,-18.76845 -25.22009,0 0,18.76845 m 53.95927,-17.59542 c 4.30099,8.99327 8.01558,18.76849 11.14376,29.32569 l -10.55725,4.69211 c -2.73716,-10.94822 -6.06074,-20.91894 -9.97073,-29.9122 l 9.38422,-4.1056 m -57.47836,34.60432 c 4.30106,6.64717 8.01564,13.88084 11.14376,21.70101 2.73701,0 5.47407,-0.1955 8.2112,-0.58651 3.12801,-7.03816 5.66956,-14.66283 7.62468,-22.87404 l 11.73027,4.10559 c -1.1731,4.30112 -3.51916,9.77525 -7.03816,16.42239 l 14.66284,-2.34606 1.75955,9.97074 c -18.76852,4.3011 -39.68749,7.82018 -62.75698,10.55725 l -2.34606,-11.73028 c 5.86511,-0.39101 11.33923,-0.97752 16.42239,-1.75954 -2.3461,-6.25614 -5.27866,-12.12127 -8.79771,-17.59541 l 9.38422,-5.86514" />
      <path
         d="m 527.92501,82.029177 78.59285,0 0,11.143763 -33.43128,0 0,21.70101 30.49871,0 0,61.58395 c -1.3e-4,4.69213 -1.27091,8.21121 -3.81234,10.55725 -2.54169,2.34606 -6.15852,3.51909 -10.8505,3.51908 -2.34618,1e-5 -5.27874,-0.391 -8.79771,-1.17302 l -2.34605,-10.55725 c 4.69199,0.39102 8.21107,0.58653 10.55724,0.58651 2.34594,2e-5 3.51896,-1.95503 3.51909,-5.86514 l 0,-47.50762 -18.76844,0 0,84.45799 -11.73028,0 0,-84.45799 -18.76844,0 0,65.10304 -11.73028,0 0,-76.2468 30.49872,0 0,-21.70101 -33.43129,0 0,-11.143763 m -21.1145,-6.451652 11.73028,0 0,66.862575 c -5e-5,27.76168 -8.60225,50.44019 -25.80661,68.0356 l -9.38422,-7.62468 c 15.64034,-16.42237 23.46051,-36.55933 23.46055,-60.41092 l 0,-66.862575 m -25.22009,12.316791 11.73028,0 0,84.457994 -11.73028,0 0,-84.457994" />
    </g>
  </g>
</svg>
